<svg width="1920" height="168" viewBox="0 0 1920 168" fill="none" xmlns="http://www.w3.org/2000/svg">
<line x1="7.5" y1="165.5" x2="7.5" y2="81.3486" stroke="black" stroke-width="5" stroke-linecap="round"/>
<line x1="17.5" y1="165.5" x2="17.5" y2="61.4892" stroke="black" stroke-width="5" stroke-linecap="round"/>
<line x1="27.5" y1="165.5" x2="27.5" y2="63.2544" stroke="black" stroke-width="5" stroke-linecap="round"/>
<line x1="37.5" y1="165.5" x2="37.5" y2="106.793" stroke="black" stroke-width="5" stroke-linecap="round"/>
<line x1="47.5" y1="165.5" x2="47.5" y2="63.3934" stroke="black" stroke-width="5" stroke-linecap="round"/>
<line x1="57.5" y1="165.5" x2="57.5" y2="66.8645" stroke="black" stroke-width="5" stroke-linecap="round"/>
<line x1="67.5" y1="165.5" x2="67.5" y2="130.689" stroke="black" stroke-width="5" stroke-linecap="round"/>
<line x1="77.5" y1="165.5" x2="77.5" y2="129.038" stroke="black" stroke-width="5" stroke-linecap="round"/>
<line x1="87.5" y1="165.5" x2="87.5" y2="48.6606" stroke="black" stroke-width="5" stroke-linecap="round"/>
<line x1="97.5" y1="165.5" x2="97.5" y2="87.8867" stroke="black" stroke-width="5" stroke-linecap="round"/>
<line x1="107.5" y1="165.5" x2="107.5" y2="129.269" stroke="black" stroke-width="5" stroke-linecap="round"/>
<line x1="117.5" y1="165.5" x2="117.5" y2="98.1802" stroke="black" stroke-width="5" stroke-linecap="round"/>
<line x1="127.5" y1="165.5" x2="127.5" y2="76.9323" stroke="black" stroke-width="5" stroke-linecap="round"/>
<line x1="137.5" y1="165.5" x2="137.5" y2="135.388" stroke="black" stroke-width="5" stroke-linecap="round"/>
<line x1="147.5" y1="165.5" x2="147.5" y2="57.0191" stroke="black" stroke-width="5" stroke-linecap="round"/>
<line x1="157.5" y1="165.5" x2="157.5" y2="81.772" stroke="black" stroke-width="5" stroke-linecap="round"/>
<line x1="167.5" y1="165.5" x2="167.5" y2="60.6725" stroke="black" stroke-width="5" stroke-linecap="round"/>
<line x1="177.5" y1="165.5" x2="177.5" y2="40.7577" stroke="black" stroke-width="5" stroke-linecap="round"/>
<line x1="187.5" y1="165.5" x2="187.5" y2="54.3274" stroke="black" stroke-width="5" stroke-linecap="round"/>
<line x1="197.5" y1="165.5" x2="197.5" y2="104.283" stroke="black" stroke-width="5" stroke-linecap="round"/>
<line x1="207.5" y1="165.5" x2="207.5" y2="133.729" stroke="black" stroke-width="5" stroke-linecap="round"/>
<line x1="217.5" y1="165.5" x2="217.5" y2="85.924" stroke="black" stroke-width="5" stroke-linecap="round"/>
<line x1="227.5" y1="165.5" x2="227.5" y2="45.5971" stroke="black" stroke-width="5" stroke-linecap="round"/>
<line x1="237.5" y1="165.5" x2="237.5" y2="62.8822" stroke="black" stroke-width="5" stroke-linecap="round"/>
<line x1="247.5" y1="165.5" x2="247.5" y2="57.2558" stroke="black" stroke-width="5" stroke-linecap="round"/>
<line x1="257.5" y1="165.5" x2="257.5" y2="42.649" stroke="black" stroke-width="5" stroke-linecap="round"/>
<line x1="267.5" y1="165.5" x2="267.5" y2="57.793" stroke="black" stroke-width="5" stroke-linecap="round"/>
<line x1="277.5" y1="165.5" x2="277.5" y2="117.037" stroke="black" stroke-width="5" stroke-linecap="round"/>
<line x1="287.5" y1="165.5" x2="287.5" y2="37.5344" stroke="black" stroke-width="5" stroke-linecap="round"/>
<line x1="297.5" y1="165.5" x2="297.5" y2="59.5821" stroke="black" stroke-width="5" stroke-linecap="round"/>
<line x1="307.5" y1="165.5" x2="307.5" y2="125.25" stroke="black" stroke-width="5" stroke-linecap="round"/>
<line x1="317.5" y1="165.5" x2="317.5" y2="119.811" stroke="black" stroke-width="5" stroke-linecap="round"/>
<line x1="327.5" y1="165.5" x2="327.5" y2="72.7617" stroke="black" stroke-width="5" stroke-linecap="round"/>
<line x1="337.5" y1="165.5" x2="337.5" y2="52.8142" stroke="black" stroke-width="5" stroke-linecap="round"/>
<line x1="347.5" y1="165.5" x2="347.5" y2="41.4487" stroke="black" stroke-width="5" stroke-linecap="round"/>
<line x1="357.5" y1="165.5" x2="357.5" y2="45.907" stroke="black" stroke-width="5" stroke-linecap="round"/>
<line x1="367.5" y1="165.5" x2="367.5" y2="64.2201" stroke="black" stroke-width="5" stroke-linecap="round"/>
<line x1="377.5" y1="165.5" x2="377.5" y2="37.5554" stroke="black" stroke-width="5" stroke-linecap="round"/>
<line x1="387.5" y1="165.5" x2="387.5" y2="110.975" stroke="black" stroke-width="5" stroke-linecap="round"/>
<line x1="397.5" y1="165.5" x2="397.5" y2="52.576" stroke="black" stroke-width="5" stroke-linecap="round"/>
<line x1="407.5" y1="165.5" x2="407.5" y2="79.6857" stroke="black" stroke-width="5" stroke-linecap="round"/>
<line x1="417.5" y1="165.5" x2="417.5" y2="113.701" stroke="black" stroke-width="5" stroke-linecap="round"/>
<line x1="427.5" y1="165.5" x2="427.5" y2="70.8483" stroke="black" stroke-width="5" stroke-linecap="round"/>
<line x1="437.5" y1="165.5" x2="437.5" y2="39.0528" stroke="black" stroke-width="5" stroke-linecap="round"/>
<line x1="447.5" y1="165.5" x2="447.5" y2="43.5125" stroke="black" stroke-width="5" stroke-linecap="round"/>
<line x1="457.5" y1="165.5" x2="457.5" y2="127.614" stroke="black" stroke-width="5" stroke-linecap="round"/>
<line x1="467.5" y1="165.5" x2="467.5" y2="108.804" stroke="black" stroke-width="5" stroke-linecap="round"/>
<line x1="477.5" y1="165.5" x2="477.5" y2="127.197" stroke="black" stroke-width="5" stroke-linecap="round"/>
<line x1="487.5" y1="165.5" x2="487.5" y2="60.4573" stroke="black" stroke-width="5" stroke-linecap="round"/>
<line x1="497.5" y1="165.5" x2="497.5" y2="108.487" stroke="black" stroke-width="5" stroke-linecap="round"/>
<line x1="507.5" y1="165.5" x2="507.5" y2="135.46" stroke="black" stroke-width="5" stroke-linecap="round"/>
<line x1="517.5" y1="165.5" x2="517.5" y2="90.3158" stroke="black" stroke-width="5" stroke-linecap="round"/>
<line x1="527.5" y1="165.5" x2="527.5" y2="52.8075" stroke="black" stroke-width="5" stroke-linecap="round"/>
<line x1="537.5" y1="165.5" x2="537.5" y2="46.6265" stroke="black" stroke-width="5" stroke-linecap="round"/>
<line x1="547.5" y1="165.5" x2="547.5" y2="90.4491" stroke="black" stroke-width="5" stroke-linecap="round"/>
<line x1="557.5" y1="165.5" x2="557.5" y2="100.081" stroke="black" stroke-width="5" stroke-linecap="round"/>
<line x1="567.5" y1="165.5" x2="567.5" y2="62.25" stroke="black" stroke-width="5" stroke-linecap="round"/>
<line x1="577.5" y1="165.5" x2="577.5" y2="92.1296" stroke="black" stroke-width="5" stroke-linecap="round"/>
<line x1="587.5" y1="165.5" x2="587.5" y2="78.4942" stroke="black" stroke-width="5" stroke-linecap="round"/>
<line x1="597.5" y1="165.5" x2="597.5" y2="124.968" stroke="black" stroke-width="5" stroke-linecap="round"/>
<line x1="607.5" y1="165.5" x2="607.5" y2="83.0328" stroke="black" stroke-width="5" stroke-linecap="round"/>
<line x1="617.5" y1="165.5" x2="617.5" y2="79.9622" stroke="black" stroke-width="5" stroke-linecap="round"/>
<line x1="627.5" y1="165.5" x2="627.5" y2="92.8401" stroke="black" stroke-width="5" stroke-linecap="round"/>
<line x1="637.5" y1="165.5" x2="637.5" y2="45.8216" stroke="black" stroke-width="5" stroke-linecap="round"/>
<line x1="647.5" y1="165.5" x2="647.5" y2="99.7973" stroke="black" stroke-width="5" stroke-linecap="round"/>
<line x1="657.5" y1="165.5" x2="657.5" y2="89.8281" stroke="black" stroke-width="5" stroke-linecap="round"/>
<line x1="667.5" y1="165.5" x2="667.5" y2="57.1566" stroke="black" stroke-width="5" stroke-linecap="round"/>
<line x1="677.5" y1="165.5" x2="677.5" y2="105.176" stroke="black" stroke-width="5" stroke-linecap="round"/>
<line x1="687.5" y1="165.5" x2="687.5" y2="51.3387" stroke="black" stroke-width="5" stroke-linecap="round"/>
<line x1="697.5" y1="165.5" x2="697.5" y2="92.2347" stroke="black" stroke-width="5" stroke-linecap="round"/>
<line x1="707.5" y1="165.5" x2="707.5" y2="68.0827" stroke="black" stroke-width="5" stroke-linecap="round"/>
<line x1="717.5" y1="165.5" x2="717.5" y2="82.5563" stroke="black" stroke-width="5" stroke-linecap="round"/>
<line x1="727.5" y1="165.5" x2="727.5" y2="71.5639" stroke="black" stroke-width="5" stroke-linecap="round"/>
<line x1="737.5" y1="165.5" x2="737.5" y2="69.4305" stroke="black" stroke-width="5" stroke-linecap="round"/>
<line x1="747.5" y1="165.5" x2="747.5" y2="42.5577" stroke="black" stroke-width="5" stroke-linecap="round"/>
<line x1="757.5" y1="165.5" x2="757.5" y2="42.3444" stroke="black" stroke-width="5" stroke-linecap="round"/>
<line x1="767.5" y1="165.5" x2="767.5" y2="113.308" stroke="black" stroke-width="5" stroke-linecap="round"/>
<line x1="777.5" y1="165.5" x2="777.5" y2="90.1644" stroke="black" stroke-width="5" stroke-linecap="round"/>
<line x1="787.5" y1="165.5" x2="787.5" y2="73.748" stroke="black" stroke-width="5" stroke-linecap="round"/>
<line x1="797.5" y1="165.5" x2="797.5" y2="40.9792" stroke="black" stroke-width="5" stroke-linecap="round"/>
<line x1="807.5" y1="165.5" x2="807.5" y2="119.224" stroke="black" stroke-width="5" stroke-linecap="round"/>
<line x1="817.5" y1="165.5" x2="817.5" y2="133.73" stroke="black" stroke-width="5" stroke-linecap="round"/>
<line x1="827.5" y1="165.5" x2="827.5" y2="136.5" stroke="black" stroke-width="5" stroke-linecap="round"/>
<line x1="837.5" y1="165.5" x2="837.5" y2="130.558" stroke="black" stroke-width="5" stroke-linecap="round"/>
<line x1="847.5" y1="165.5" x2="847.5" y2="95.2398" stroke="black" stroke-width="5" stroke-linecap="round"/>
<line x1="857.5" y1="165.5" x2="857.5" y2="118.791" stroke="black" stroke-width="5" stroke-linecap="round"/>
<line x1="867.5" y1="165.5" x2="867.5" y2="86.6538" stroke="black" stroke-width="5" stroke-linecap="round"/>
<line x1="877.5" y1="165.5" x2="877.5" y2="108.792" stroke="black" stroke-width="5" stroke-linecap="round"/>
<line x1="887.5" y1="165.5" x2="887.5" y2="114.009" stroke="black" stroke-width="5" stroke-linecap="round"/>
<line x1="897.5" y1="165.5" x2="897.5" y2="103.925" stroke="black" stroke-width="5" stroke-linecap="round"/>
<line x1="907.5" y1="165.5" x2="907.5" y2="79.3525" stroke="black" stroke-width="5" stroke-linecap="round"/>
<line x1="917.5" y1="165.5" x2="917.5" y2="100.207" stroke="black" stroke-width="5" stroke-linecap="round"/>
<line x1="927.5" y1="165.5" x2="927.5" y2="58.1334" stroke="black" stroke-width="5" stroke-linecap="round"/>
<line x1="937.5" y1="165.5" x2="937.5" y2="93.8856" stroke="black" stroke-width="5" stroke-linecap="round"/>
<line x1="947.5" y1="165.5" x2="947.5" y2="51.8294" stroke="black" stroke-width="5" stroke-linecap="round"/>
<line x1="957.5" y1="165.5" x2="957.5" y2="110.839" stroke="black" stroke-width="5" stroke-linecap="round"/>
<line x1="967.5" y1="165.5" x2="967.5" y2="52.1783" stroke="black" stroke-width="5" stroke-linecap="round"/>
<line x1="977.5" y1="165.5" x2="977.5" y2="107.163" stroke="black" stroke-width="5" stroke-linecap="round"/>
<line x1="987.5" y1="165.5" x2="987.5" y2="67.4121" stroke="black" stroke-width="5" stroke-linecap="round"/>
<line x1="997.5" y1="165.5" x2="997.5" y2="118.295" stroke="black" stroke-width="5" stroke-linecap="round"/>
<line x1="1007.5" y1="165.5" x2="1007.5" y2="127.618" stroke="black" stroke-width="5" stroke-linecap="round"/>
<line x1="1017.5" y1="165.5" x2="1017.5" y2="38.4415" stroke="black" stroke-width="5" stroke-linecap="round"/>
<line x1="1027.5" y1="165.5" x2="1027.5" y2="65.4189" stroke="black" stroke-width="5" stroke-linecap="round"/>
<line x1="1037.5" y1="165.5" x2="1037.5" y2="54.5018" stroke="black" stroke-width="5" stroke-linecap="round"/>
<line x1="1047.5" y1="165.5" x2="1047.5" y2="85.5582" stroke="black" stroke-width="5" stroke-linecap="round"/>
<line x1="1057.5" y1="165.5" x2="1057.5" y2="40.3678" stroke="black" stroke-width="5" stroke-linecap="round"/>
<line x1="1067.5" y1="165.5" x2="1067.5" y2="83.3492" stroke="black" stroke-width="5" stroke-linecap="round"/>
<line x1="1077.5" y1="165.5" x2="1077.5" y2="52.7495" stroke="black" stroke-width="5" stroke-linecap="round"/>
<line x1="1087.5" y1="165.5" x2="1087.5" y2="121.181" stroke="black" stroke-width="5" stroke-linecap="round"/>
<line x1="1097.5" y1="165.5" x2="1097.5" y2="128.055" stroke="black" stroke-width="5" stroke-linecap="round"/>
<line x1="1107.5" y1="165.5" x2="1107.5" y2="59.3739" stroke="black" stroke-width="5" stroke-linecap="round"/>
<line x1="1117.5" y1="165.5" x2="1117.5" y2="53.3335" stroke="black" stroke-width="5" stroke-linecap="round"/>
<line x1="1127.5" y1="165.5" x2="1127.5" y2="79.2169" stroke="black" stroke-width="5" stroke-linecap="round"/>
<line x1="1137.5" y1="165.5" x2="1137.5" y2="53.8374" stroke="black" stroke-width="5" stroke-linecap="round"/>
<line x1="1147.5" y1="165.5" x2="1147.5" y2="104.142" stroke="black" stroke-width="5" stroke-linecap="round"/>
<line x1="1157.5" y1="165.5" x2="1157.5" y2="84.2406" stroke="black" stroke-width="5" stroke-linecap="round"/>
<line x1="1167.5" y1="165.5" x2="1167.5" y2="94.5325" stroke="black" stroke-width="5" stroke-linecap="round"/>
<line x1="1177.5" y1="165.5" x2="1177.5" y2="96.0612" stroke="black" stroke-width="5" stroke-linecap="round"/>
<line x1="1187.5" y1="165.5" x2="1187.5" y2="46.173" stroke="black" stroke-width="5" stroke-linecap="round"/>
<line x1="1197.5" y1="165.5" x2="1197.5" y2="60.627" stroke="black" stroke-width="5" stroke-linecap="round"/>
<line x1="1207.5" y1="165.5" x2="1207.5" y2="82.9183" stroke="black" stroke-width="5" stroke-linecap="round"/>
<line x1="1217.5" y1="165.5" x2="1217.5" y2="124.33" stroke="black" stroke-width="5" stroke-linecap="round"/>
<line x1="1227.5" y1="165.5" x2="1227.5" y2="89.6293" stroke="black" stroke-width="5" stroke-linecap="round"/>
<line x1="1237.5" y1="165.5" x2="1237.5" y2="115.175" stroke="black" stroke-width="5" stroke-linecap="round"/>
<line x1="1247.5" y1="165.5" x2="1247.5" y2="116.61" stroke="black" stroke-width="5" stroke-linecap="round"/>
<line x1="1257.5" y1="165.5" x2="1257.5" y2="97.9217" stroke="black" stroke-width="5" stroke-linecap="round"/>
<line x1="1267.5" y1="165.5" x2="1267.5" y2="108.091" stroke="black" stroke-width="5" stroke-linecap="round"/>
<line x1="1277.5" y1="165.5" x2="1277.5" y2="62.3105" stroke="black" stroke-width="5" stroke-linecap="round"/>
<line x1="1287.5" y1="165.5" x2="1287.5" y2="81.7417" stroke="black" stroke-width="5" stroke-linecap="round"/>
<line x1="1297.5" y1="165.5" x2="1297.5" y2="92.0081" stroke="black" stroke-width="5" stroke-linecap="round"/>
<line x1="1307.5" y1="165.5" x2="1307.5" y2="113.93" stroke="black" stroke-width="5" stroke-linecap="round"/>
<line x1="1317.5" y1="165.5" x2="1317.5" y2="101.849" stroke="black" stroke-width="5" stroke-linecap="round"/>
<line x1="1327.5" y1="165.5" x2="1327.5" y2="62.695" stroke="black" stroke-width="5" stroke-linecap="round"/>
<line x1="1337.5" y1="165.5" x2="1337.5" y2="54.0474" stroke="black" stroke-width="5" stroke-linecap="round"/>
<line x1="1347.5" y1="165.5" x2="1347.5" y2="64.1981" stroke="black" stroke-width="5" stroke-linecap="round"/>
<line x1="1357.5" y1="165.5" x2="1357.5" y2="104.026" stroke="black" stroke-width="5" stroke-linecap="round"/>
<line x1="1367.5" y1="165.5" x2="1367.5" y2="118.851" stroke="black" stroke-width="5" stroke-linecap="round"/>
<line x1="1377.5" y1="165.5" x2="1377.5" y2="73.9995" stroke="black" stroke-width="5" stroke-linecap="round"/>
<line x1="1387.5" y1="165.5" x2="1387.5" y2="49.2627" stroke="black" stroke-width="5" stroke-linecap="round"/>
<line x1="1397.5" y1="165.5" x2="1397.5" y2="50.2543" stroke="black" stroke-width="5" stroke-linecap="round"/>
<line x1="1407.5" y1="165.5" x2="1407.5" y2="132.092" stroke="black" stroke-width="5" stroke-linecap="round"/>
<line x1="1417.5" y1="165.5" x2="1417.5" y2="135.311" stroke="black" stroke-width="5" stroke-linecap="round"/>
<line x1="1427.5" y1="165.5" x2="1427.5" y2="41.5963" stroke="black" stroke-width="5" stroke-linecap="round"/>
<line x1="1437.5" y1="165.5" x2="1437.5" y2="53.3715" stroke="black" stroke-width="5" stroke-linecap="round"/>
<line x1="1447.5" y1="165.5" x2="1447.5" y2="62.8617" stroke="black" stroke-width="5" stroke-linecap="round"/>
<line x1="1457.5" y1="165.5" x2="1457.5" y2="61.2362" stroke="black" stroke-width="5" stroke-linecap="round"/>
<line x1="1467.5" y1="165.5" x2="1467.5" y2="50.6723" stroke="black" stroke-width="5" stroke-linecap="round"/>
<line x1="1477.5" y1="165.5" x2="1477.5" y2="100.964" stroke="black" stroke-width="5" stroke-linecap="round"/>
<line x1="1487.5" y1="165.5" x2="1487.5" y2="80.7397" stroke="black" stroke-width="5" stroke-linecap="round"/>
<line x1="1497.5" y1="165.5" x2="1497.5" y2="84.8538" stroke="black" stroke-width="5" stroke-linecap="round"/>
<line x1="1507.5" y1="165.5" x2="1507.5" y2="136.607" stroke="black" stroke-width="5" stroke-linecap="round"/>
<line x1="1517.5" y1="165.5" x2="1517.5" y2="47.7222" stroke="black" stroke-width="5" stroke-linecap="round"/>
<line x1="1527.5" y1="165.5" x2="1527.5" y2="123.82" stroke="black" stroke-width="5" stroke-linecap="round"/>
<line x1="1537.5" y1="165.5" x2="1537.5" y2="63.1962" stroke="black" stroke-width="5" stroke-linecap="round"/>
<line x1="1547.5" y1="165.5" x2="1547.5" y2="56.9424" stroke="black" stroke-width="5" stroke-linecap="round"/>
<line x1="1557.5" y1="165.5" x2="1557.5" y2="104.971" stroke="black" stroke-width="5" stroke-linecap="round"/>
<line x1="1567.5" y1="165.5" x2="1567.5" y2="38.7275" stroke="black" stroke-width="5" stroke-linecap="round"/>
<line x1="1577.5" y1="165.5" x2="1577.5" y2="128.313" stroke="black" stroke-width="5" stroke-linecap="round"/>
<line x1="1587.5" y1="165.5" x2="1587.5" y2="71.9003" stroke="black" stroke-width="5" stroke-linecap="round"/>
<line x1="1597.5" y1="165.5" x2="1597.5" y2="42.6225" stroke="black" stroke-width="5" stroke-linecap="round"/>
<line x1="1607.5" y1="165.5" x2="1607.5" y2="99.6427" stroke="black" stroke-width="5" stroke-linecap="round"/>
<line x1="1617.5" y1="165.5" x2="1617.5" y2="37.3537" stroke="black" stroke-width="5" stroke-linecap="round"/>
<line x1="1627.5" y1="165.5" x2="1627.5" y2="103.485" stroke="black" stroke-width="5" stroke-linecap="round"/>
<line x1="1637.5" y1="165.5" x2="1637.5" y2="74.0888" stroke="black" stroke-width="5" stroke-linecap="round"/>
<line x1="1647.5" y1="165.5" x2="1647.5" y2="106.737" stroke="black" stroke-width="5" stroke-linecap="round"/>
<line x1="1657.5" y1="165.5" x2="1657.5" y2="72.7707" stroke="black" stroke-width="5" stroke-linecap="round"/>
<line x1="1667.5" y1="165.5" x2="1667.5" y2="66.4935" stroke="black" stroke-width="5" stroke-linecap="round"/>
<line x1="1677.5" y1="165.5" x2="1677.5" y2="72.5548" stroke="black" stroke-width="5" stroke-linecap="round"/>
<line x1="1687.5" y1="165.5" x2="1687.5" y2="57.9133" stroke="black" stroke-width="5" stroke-linecap="round"/>
<line x1="1697.5" y1="165.5" x2="1697.5" y2="89.7153" stroke="black" stroke-width="5" stroke-linecap="round"/>
<line x1="1707.5" y1="165.5" x2="1707.5" y2="122.238" stroke="black" stroke-width="5" stroke-linecap="round"/>
<line x1="1717.5" y1="165.5" x2="1717.5" y2="121.796" stroke="black" stroke-width="5" stroke-linecap="round"/>
<line x1="1727.5" y1="165.5" x2="1727.5" y2="121.856" stroke="black" stroke-width="5" stroke-linecap="round"/>
<line x1="1737.5" y1="165.5" x2="1737.5" y2="40.4857" stroke="black" stroke-width="5" stroke-linecap="round"/>
<line x1="1747.5" y1="165.5" x2="1747.5" y2="52.202" stroke="black" stroke-width="5" stroke-linecap="round"/>
<line x1="1757.5" y1="165.5" x2="1757.5" y2="55.3108" stroke="black" stroke-width="5" stroke-linecap="round"/>
<line x1="1767.5" y1="165.5" x2="1767.5" y2="104.76" stroke="black" stroke-width="5" stroke-linecap="round"/>
<line x1="1777.5" y1="165.5" x2="1777.5" y2="84.6794" stroke="black" stroke-width="5" stroke-linecap="round"/>
<line x1="1787.5" y1="165.5" x2="1787.5" y2="45.3541" stroke="black" stroke-width="5" stroke-linecap="round"/>
<line x1="1797.5" y1="165.5" x2="1797.5" y2="113.653" stroke="black" stroke-width="5" stroke-linecap="round"/>
<line x1="1807.5" y1="165.5" x2="1807.5" y2="56.2614" stroke="black" stroke-width="5" stroke-linecap="round"/>
<line x1="1817.5" y1="165.5" x2="1817.5" y2="76.0961" stroke="black" stroke-width="5" stroke-linecap="round"/>
<line x1="1827.5" y1="165.5" x2="1827.5" y2="47.8178" stroke="black" stroke-width="5" stroke-linecap="round"/>
<line x1="1837.5" y1="165.5" x2="1837.5" y2="66.932" stroke="black" stroke-width="5" stroke-linecap="round"/>
<line x1="1847.5" y1="165.5" x2="1847.5" y2="132.327" stroke="black" stroke-width="5" stroke-linecap="round"/>
<line x1="1857.5" y1="165.5" x2="1857.5" y2="40.7122" stroke="black" stroke-width="5" stroke-linecap="round"/>
<line x1="1867.5" y1="165.5" x2="1867.5" y2="124.34" stroke="black" stroke-width="5" stroke-linecap="round"/>
<line x1="1877.5" y1="165.5" x2="1877.5" y2="91.9556" stroke="black" stroke-width="5" stroke-linecap="round"/>
<line x1="1887.5" y1="165.5" x2="1887.5" y2="61.2275" stroke="black" stroke-width="5" stroke-linecap="round"/>
<line x1="1897.5" y1="165.5" x2="1897.5" y2="104.477" stroke="black" stroke-width="5" stroke-linecap="round"/>
<line x1="1907.5" y1="165.5" x2="1907.5" y2="79.324" stroke="black" stroke-width="5" stroke-linecap="round"/>
</svg>
