<svg width="495" height="185" viewBox="0 0 495 185" fill="none" xmlns="http://www.w3.org/2000/svg">
<g clip-path="url(#clip0_95_17)">
<path d="M34 141.322C40.4125 141.322 41.1719 141.35 43.6938 141.462C46.0375 141.566 47.3031 141.959 48.1469 142.288C49.2625 142.719 50.0688 143.244 50.9031 144.078C51.7469 144.922 52.2625 145.719 52.6938 146.834C53.0219 147.678 53.4156 148.953 53.5188 151.287C53.6313 153.819 53.6594 154.578 53.6594 160.981C53.6594 167.394 53.6313 168.153 53.5188 170.675C53.4156 173.019 53.0219 174.284 52.6938 175.128C52.2625 176.244 51.7375 177.05 50.9031 177.884C50.0594 178.728 49.2625 179.244 48.1469 179.675C47.3031 180.003 46.0281 180.397 43.6938 180.5C41.1625 180.612 40.4031 180.641 34 180.641C27.5875 180.641 26.8281 180.612 24.3063 180.5C21.9625 180.397 20.6969 180.003 19.8531 179.675C18.7375 179.244 17.9313 178.719 17.0969 177.884C16.2531 177.041 15.7375 176.244 15.3063 175.128C14.9781 174.284 14.5844 173.009 14.4813 170.675C14.3688 168.144 14.3406 167.384 14.3406 160.981C14.3406 154.569 14.3688 153.809 14.4813 151.287C14.5844 148.944 14.9781 147.678 15.3063 146.834C15.7375 145.719 16.2625 144.912 17.0969 144.078C17.9406 143.234 18.7375 142.719 19.8531 142.288C20.6969 141.959 21.9719 141.566 24.3063 141.462C26.8281 141.35 27.5875 141.322 34 141.322ZM34 137C27.4844 137 26.6688 137.028 24.1094 137.141C21.5594 137.253 19.8063 137.666 18.2875 138.256C16.7031 138.875 15.3625 139.691 14.0313 141.031C12.6906 142.363 11.875 143.703 11.2563 145.278C10.6656 146.806 10.2531 148.55 10.1406 151.1C10.0281 153.669 10 154.484 10 161C10 167.516 10.0281 168.331 10.1406 170.891C10.2531 173.441 10.6656 175.194 11.2563 176.713C11.875 178.297 12.6906 179.638 14.0313 180.969C15.3625 182.3 16.7031 183.125 18.2781 183.734C19.8063 184.325 21.55 184.737 24.1 184.85C26.6594 184.962 27.475 184.991 33.9906 184.991C40.5063 184.991 41.3219 184.962 43.8813 184.85C46.4313 184.737 48.1844 184.325 49.7031 183.734C51.2781 183.125 52.6188 182.3 53.95 180.969C55.2812 179.638 56.1063 178.297 56.7156 176.722C57.3063 175.194 57.7188 173.45 57.8313 170.9C57.9438 168.341 57.9719 167.525 57.9719 161.009C57.9719 154.494 57.9438 153.678 57.8313 151.119C57.7188 148.569 57.3063 146.816 56.7156 145.297C56.125 143.703 55.3094 142.363 53.9688 141.031C52.6375 139.7 51.2969 138.875 49.7219 138.266C48.1938 137.675 46.45 137.263 43.9 137.15C41.3313 137.028 40.5156 137 34 137Z" fill="#000100"/>
<path d="M34 148.672C27.1938 148.672 21.6719 154.194 21.6719 161C21.6719 167.806 27.1938 173.328 34 173.328C40.8062 173.328 46.3281 167.806 46.3281 161C46.3281 154.194 40.8062 148.672 34 148.672ZM34 168.997C29.5844 168.997 26.0031 165.416 26.0031 161C26.0031 156.584 29.5844 153.003 34 153.003C38.4156 153.003 41.9969 156.584 41.9969 161C41.9969 165.416 38.4156 168.997 34 168.997Z" fill="#000100"/>
<path d="M49.6937 148.184C49.6937 149.778 48.4 151.063 46.8156 151.063C45.2219 151.063 43.9375 149.769 43.9375 148.184C43.9375 146.591 45.2313 145.306 46.8156 145.306C48.4 145.306 49.6937 146.6 49.6937 148.184Z" fill="#000100"/>
</g>
<g clip-path="url(#clip1_95_17)">
<path d="M162 157C162 143.745 151.255 133 138 133C124.745 133 114 143.745 114 157C114 168.255 121.749 177.7 132.203 180.293V164.334H127.254V157H132.203V153.84C132.203 145.671 135.9 141.885 143.919 141.885C145.44 141.885 148.064 142.183 149.137 142.481V149.129C148.571 149.069 147.587 149.04 146.364 149.04C142.429 149.04 140.909 150.531 140.909 154.406V157H148.748L147.401 164.334H140.909V180.824C152.793 179.389 162.001 169.271 162.001 157H162Z" fill="#0866FF"/>
<path d="M147.4 164.334L148.747 157H140.908V154.406C140.908 150.531 142.428 149.04 146.363 149.04C147.585 149.04 148.569 149.069 149.136 149.129V142.481C148.063 142.182 145.439 141.885 143.918 141.885C135.898 141.885 132.201 145.671 132.201 153.84V157H127.253V164.334H132.201V180.293C134.058 180.754 136 181 137.999 181C138.983 181 139.953 180.939 140.907 180.824V164.334H147.399H147.4Z" fill="white"/>
</g>
<path d="M46.6526 31H53.3995L38.6594 47.847L56 70.7719H42.4225L31.7881 56.8681L19.6199 70.7719H12.8689L28.6349 52.7522L12 31H25.9222L35.5348 43.7087L46.6526 31ZM44.2846 66.7336H48.0232L23.8908 34.8263H19.8789L44.2846 66.7336Z" fill="black"/>
<g clip-path="url(#clip2_95_17)">
<path d="M161.044 35.3709C160.773 34.3498 160.238 33.4178 159.493 32.6683C158.748 31.9187 157.82 31.3779 156.8 31.1C153.048 30.0909 138.048 30.0909 138.048 30.0909C138.048 30.0909 123.048 30.0909 119.295 31.1C118.275 31.3779 117.347 31.9187 116.602 32.6683C115.857 33.4178 115.323 34.3498 115.051 35.3709C114.048 39.14 114.048 47 114.048 47C114.048 47 114.048 54.86 115.051 58.6291C115.323 59.6503 115.857 60.5823 116.602 61.3318C117.347 62.0813 118.275 62.6221 119.295 62.9C123.048 63.9091 138.048 63.9091 138.048 63.9091C138.048 63.9091 153.048 63.9091 156.8 62.9C157.82 62.6221 158.748 62.0813 159.493 61.3318C160.238 60.5823 160.773 59.6503 161.044 58.6291C162.048 54.86 162.048 47 162.048 47C162.048 47 162.048 39.14 161.044 35.3709Z" fill="#FF0302"/>
<path d="M133.139 54.1373V39.8628L145.684 47.0001L133.139 54.1373Z" fill="#FEFEFE"/>
</g>
<path d="M237.381 49.576C237.381 50.5573 237.263 51.5173 237.029 52.456C236.815 53.3947 236.474 54.248 236.005 55.016C235.535 55.7627 234.959 56.3707 234.277 56.84C233.594 57.288 232.783 57.512 231.845 57.512C230.863 57.512 230.085 57.2347 229.509 56.68C228.954 56.104 228.613 55.4533 228.485 54.728H228.325C227.941 55.5173 227.375 56.1787 226.629 56.712C225.882 57.2453 224.943 57.512 223.813 57.512C222.191 57.512 220.933 56.968 220.037 55.88C219.162 54.792 218.725 53.352 218.725 51.56C218.725 50.152 219.002 48.9147 219.557 47.848C220.111 46.76 220.89 45.9067 221.893 45.288C222.917 44.6693 224.122 44.36 225.509 44.36C226.447 44.36 227.365 44.4453 228.261 44.616C229.178 44.7653 229.893 44.936 230.405 45.128L230.085 51.624C230.063 52.008 230.053 52.2853 230.053 52.456C230.053 52.6053 230.053 52.712 230.053 52.776C230.053 53.8853 230.245 54.6213 230.629 54.984C231.034 55.3467 231.503 55.528 232.037 55.528C232.698 55.528 233.253 55.2613 233.701 54.728C234.17 54.1733 234.522 53.448 234.757 52.552C235.013 51.6347 235.141 50.632 235.141 49.544C235.141 47.56 234.735 45.8853 233.925 44.52C233.135 43.1333 232.037 42.0773 230.629 41.352C229.242 40.6267 227.663 40.264 225.893 40.264C224.079 40.264 222.469 40.552 221.061 41.128C219.653 41.704 218.469 42.5147 217.509 43.56C216.57 44.6053 215.855 45.8427 215.365 47.272C214.874 48.68 214.629 50.2373 214.629 51.944C214.629 54.0347 215.002 55.816 215.749 57.288C216.495 58.7387 217.583 59.848 219.013 60.616C220.463 61.3627 222.234 61.736 224.325 61.736C225.626 61.736 226.863 61.5867 228.037 61.288C229.231 61.0107 230.287 60.7013 231.205 60.36V62.536C230.287 62.92 229.253 63.2293 228.101 63.464C226.97 63.72 225.711 63.848 224.325 63.848C221.807 63.848 219.653 63.3787 217.861 62.44C216.069 61.5013 214.693 60.1573 213.733 58.408C212.794 56.6373 212.325 54.5147 212.325 52.04C212.325 50.056 212.634 48.2213 213.253 46.536C213.871 44.8293 214.767 43.3573 215.941 42.12C217.114 40.8613 218.533 39.8907 220.197 39.208C221.882 38.504 223.781 38.152 225.893 38.152C227.557 38.152 229.082 38.4187 230.469 38.952C231.877 39.464 233.093 40.2213 234.117 41.224C235.162 42.2053 235.962 43.4 236.517 44.808C237.093 46.216 237.381 47.8053 237.381 49.576ZM221.221 51.624C221.221 52.9893 221.487 53.9813 222.021 54.6C222.575 55.2187 223.311 55.528 224.229 55.528C225.423 55.528 226.277 55.08 226.789 54.184C227.322 53.288 227.631 52.1253 227.717 50.696L227.909 46.696C227.631 46.6107 227.279 46.536 226.853 46.472C226.426 46.408 225.989 46.376 225.541 46.376C224.495 46.376 223.653 46.632 223.013 47.144C222.373 47.656 221.914 48.3173 221.637 49.128C221.359 49.9173 221.221 50.7493 221.221 51.624ZM248.786 61H240.53V59.336L243.218 58.728V40.456L240.53 39.816V38.152H248.786V39.816L246.098 40.456V58.728L248.786 59.336V61ZM264.238 61.352C264.238 60.968 264.248 60.52 264.27 60.008C264.291 59.496 264.334 59.0587 264.398 58.696H264.206C263.715 59.4213 263.032 60.04 262.158 60.552C261.304 61.064 260.195 61.32 258.83 61.32C256.76 61.32 255.075 60.584 253.774 59.112C252.494 57.6187 251.854 55.4 251.854 52.456C251.854 50.4933 252.152 48.8507 252.75 47.528C253.347 46.2053 254.179 45.2133 255.246 44.552C256.312 43.8693 257.539 43.528 258.926 43.528C260.27 43.528 261.368 43.784 262.222 44.296C263.075 44.808 263.758 45.4373 264.27 46.184H264.398L264.814 43.848H267.054V68.68H264.238V61.352ZM259.374 58.984C260.547 58.984 261.486 58.7707 262.19 58.344C262.915 57.9173 263.438 57.2667 263.758 56.392C264.078 55.496 264.248 54.3867 264.27 53.064V52.488C264.27 50.312 263.907 48.6693 263.182 47.56C262.456 46.4293 261.166 45.864 259.31 45.864C257.774 45.864 256.632 46.472 255.886 47.688C255.139 48.8827 254.766 50.4933 254.766 52.52C254.766 54.5467 255.139 56.136 255.886 57.288C256.654 58.4187 257.816 58.984 259.374 58.984ZM275.317 42.6C275.317 43.3253 275.296 44.008 275.253 44.648C275.232 45.2667 275.2 45.7573 275.157 46.12H275.317C275.808 45.3947 276.48 44.7867 277.333 44.296C278.187 43.8053 279.285 43.56 280.629 43.56C282.763 43.56 284.469 44.3067 285.749 45.8C287.051 47.272 287.701 49.48 287.701 52.424C287.701 54.3867 287.403 56.0293 286.805 57.352C286.229 58.6747 285.408 59.6667 284.341 60.328C283.275 60.9893 282.037 61.32 280.629 61.32C279.285 61.32 278.187 61.0747 277.333 60.584C276.48 60.0933 275.808 59.5067 275.317 58.824H275.093L274.517 61H272.501V36.68H275.317V42.6ZM280.149 45.896C278.933 45.896 277.973 46.1307 277.269 46.6C276.565 47.048 276.064 47.752 275.765 48.712C275.467 49.6507 275.317 50.856 275.317 52.328V52.456C275.317 54.568 275.659 56.1893 276.341 57.32C277.045 58.4293 278.336 58.984 280.213 58.984C281.749 58.984 282.891 58.4187 283.637 57.288C284.405 56.1573 284.789 54.5253 284.789 52.392C284.789 50.2373 284.405 48.616 283.637 47.528C282.891 46.44 281.728 45.896 280.149 45.896ZM298.685 43.56C300.775 43.56 302.322 44.0187 303.325 44.936C304.327 45.8533 304.829 47.3147 304.829 49.32V61H302.781L302.237 58.568H302.109C301.618 59.1867 301.106 59.7093 300.573 60.136C300.061 60.5413 299.463 60.84 298.781 61.032C298.119 61.224 297.309 61.32 296.349 61.32C295.325 61.32 294.397 61.1387 293.565 60.776C292.754 60.4133 292.114 59.8587 291.645 59.112C291.175 58.344 290.941 57.384 290.941 56.232C290.941 54.5253 291.613 53.2133 292.957 52.296C294.301 51.3573 296.37 50.8453 299.165 50.76L302.077 50.664V49.64C302.077 48.2107 301.767 47.2187 301.149 46.664C300.53 46.1093 299.655 45.832 298.525 45.832C297.629 45.832 296.775 45.9707 295.965 46.248C295.154 46.504 294.397 46.8027 293.693 47.144L292.829 45.032C293.575 44.6267 294.461 44.2853 295.485 44.008C296.509 43.7093 297.575 43.56 298.685 43.56ZM299.517 52.712C297.383 52.7973 295.901 53.1387 295.069 53.736C294.258 54.3333 293.853 55.176 293.853 56.264C293.853 57.224 294.141 57.928 294.717 58.376C295.314 58.824 296.071 59.048 296.989 59.048C298.439 59.048 299.645 58.6533 300.605 57.864C301.565 57.0533 302.045 55.816 302.045 54.152V52.616L299.517 52.712ZM312.942 61H310.126V36.68H312.942V61ZM321.64 61H318.76V38.152H331.528V40.68H321.64V48.776H330.92V51.304H321.64V61ZM341.466 43.56C343.557 43.56 345.103 44.0187 346.106 44.936C347.109 45.8533 347.61 47.3147 347.61 49.32V61H345.562L345.018 58.568H344.89C344.399 59.1867 343.887 59.7093 343.354 60.136C342.842 60.5413 342.245 60.84 341.562 61.032C340.901 61.224 340.09 61.32 339.13 61.32C338.106 61.32 337.178 61.1387 336.346 60.776C335.535 60.4133 334.895 59.8587 334.426 59.112C333.957 58.344 333.722 57.384 333.722 56.232C333.722 54.5253 334.394 53.2133 335.738 52.296C337.082 51.3573 339.151 50.8453 341.946 50.76L344.858 50.664V49.64C344.858 48.2107 344.549 47.2187 343.93 46.664C343.311 46.1093 342.437 45.832 341.306 45.832C340.41 45.832 339.557 45.9707 338.746 46.248C337.935 46.504 337.178 46.8027 336.474 47.144L335.61 45.032C336.357 44.6267 337.242 44.2853 338.266 44.008C339.29 43.7093 340.357 43.56 341.466 43.56ZM342.298 52.712C340.165 52.7973 338.682 53.1387 337.85 53.736C337.039 54.3333 336.634 55.176 336.634 56.264C336.634 57.224 336.922 57.928 337.498 58.376C338.095 58.824 338.853 59.048 339.77 59.048C341.221 59.048 342.426 58.6533 343.386 57.864C344.346 57.0533 344.826 55.816 344.826 54.152V52.616L342.298 52.712ZM360.908 43.528C361.228 43.528 361.569 43.5493 361.932 43.592C362.316 43.6133 362.646 43.656 362.924 43.72L362.572 46.312C362.294 46.248 361.985 46.1947 361.644 46.152C361.324 46.1093 361.014 46.088 360.716 46.088C360.054 46.088 359.425 46.2267 358.828 46.504C358.23 46.7813 357.697 47.176 357.228 47.688C356.758 48.1787 356.385 48.776 356.108 49.48C355.852 50.184 355.724 50.9733 355.724 51.848V61H352.908V43.848H355.212L355.532 46.984H355.66C356.022 46.344 356.46 45.768 356.972 45.256C357.484 44.7227 358.07 44.3067 358.732 44.008C359.393 43.688 360.118 43.528 360.908 43.528ZM377.294 56.264C377.294 57.3733 377.017 58.3013 376.462 59.048C375.908 59.7947 375.118 60.36 374.094 60.744C373.07 61.128 371.854 61.32 370.446 61.32C369.252 61.32 368.217 61.224 367.342 61.032C366.489 60.84 365.732 60.5733 365.07 60.232V57.672C365.753 58.0133 366.574 58.3333 367.534 58.632C368.516 58.9093 369.508 59.048 370.51 59.048C371.94 59.048 372.974 58.824 373.614 58.376C374.254 57.9067 374.574 57.288 374.574 56.52C374.574 56.0933 374.457 55.7093 374.222 55.368C373.988 55.0267 373.561 54.6853 372.942 54.344C372.345 54.0027 371.481 53.6187 370.35 53.192C369.241 52.7653 368.292 52.3387 367.502 51.912C366.713 51.4853 366.105 50.9733 365.678 50.376C365.252 49.7787 365.038 49.0107 365.038 48.072C365.038 46.6213 365.625 45.5013 366.798 44.712C367.993 43.9227 369.55 43.528 371.47 43.528C372.516 43.528 373.486 43.6347 374.382 43.848C375.3 44.04 376.153 44.3173 376.942 44.68L375.982 46.92C375.513 46.7067 375.012 46.5253 374.478 46.376C373.966 46.2053 373.444 46.0773 372.91 45.992C372.377 45.8853 371.833 45.832 371.278 45.832C370.126 45.832 369.241 46.024 368.622 46.408C368.025 46.7707 367.726 47.272 367.726 47.912C367.726 48.3813 367.865 48.7867 368.142 49.128C368.42 49.448 368.878 49.768 369.518 50.088C370.18 50.3867 371.054 50.7493 372.142 51.176C373.23 51.5813 374.158 51.9973 374.926 52.424C375.694 52.8507 376.281 53.3733 376.686 53.992C377.092 54.5893 377.294 55.3467 377.294 56.264ZM384.255 43.848V61H381.439V43.848H384.255ZM382.879 37.416C383.305 37.416 383.679 37.5653 383.999 37.864C384.34 38.1413 384.511 38.5893 384.511 39.208C384.511 39.8053 384.34 40.2533 383.999 40.552C383.679 40.8507 383.305 41 382.879 41C382.409 41 382.015 40.8507 381.695 40.552C381.375 40.2533 381.215 39.8053 381.215 39.208C381.215 38.5893 381.375 38.1413 381.695 37.864C382.015 37.5653 382.409 37.416 382.879 37.416Z" fill="black"/>
<path d="M235.615 154.576C235.615 155.557 235.498 156.517 235.263 157.456C235.05 158.395 234.708 159.248 234.239 160.016C233.77 160.763 233.194 161.371 232.511 161.84C231.828 162.288 231.018 162.512 230.079 162.512C229.098 162.512 228.319 162.235 227.743 161.68C227.188 161.104 226.847 160.453 226.719 159.728H226.559C226.175 160.517 225.61 161.179 224.863 161.712C224.116 162.245 223.178 162.512 222.047 162.512C220.426 162.512 219.167 161.968 218.271 160.88C217.396 159.792 216.959 158.352 216.959 156.56C216.959 155.152 217.236 153.915 217.791 152.848C218.346 151.76 219.124 150.907 220.127 150.288C221.151 149.669 222.356 149.36 223.743 149.36C224.682 149.36 225.599 149.445 226.495 149.616C227.412 149.765 228.127 149.936 228.639 150.128L228.319 156.624C228.298 157.008 228.287 157.285 228.287 157.456C228.287 157.605 228.287 157.712 228.287 157.776C228.287 158.885 228.479 159.621 228.863 159.984C229.268 160.347 229.738 160.528 230.271 160.528C230.932 160.528 231.487 160.261 231.935 159.728C232.404 159.173 232.756 158.448 232.991 157.552C233.247 156.635 233.375 155.632 233.375 154.544C233.375 152.56 232.97 150.885 232.159 149.52C231.37 148.133 230.271 147.077 228.863 146.352C227.476 145.627 225.898 145.264 224.127 145.264C222.314 145.264 220.703 145.552 219.295 146.128C217.887 146.704 216.703 147.515 215.743 148.56C214.804 149.605 214.09 150.843 213.599 152.272C213.108 153.68 212.863 155.237 212.863 156.944C212.863 159.035 213.236 160.816 213.983 162.288C214.73 163.739 215.818 164.848 217.247 165.616C218.698 166.363 220.468 166.736 222.559 166.736C223.86 166.736 225.098 166.587 226.271 166.288C227.466 166.011 228.522 165.701 229.439 165.36V167.536C228.522 167.92 227.487 168.229 226.335 168.464C225.204 168.72 223.946 168.848 222.559 168.848C220.042 168.848 217.887 168.379 216.095 167.44C214.303 166.501 212.927 165.157 211.967 163.408C211.028 161.637 210.559 159.515 210.559 157.04C210.559 155.056 210.868 153.221 211.487 151.536C212.106 149.829 213.002 148.357 214.175 147.12C215.348 145.861 216.767 144.891 218.431 144.208C220.116 143.504 222.015 143.152 224.127 143.152C225.791 143.152 227.316 143.419 228.703 143.952C230.111 144.464 231.327 145.221 232.351 146.224C233.396 147.205 234.196 148.4 234.751 149.808C235.327 151.216 235.615 152.805 235.615 154.576ZM219.455 156.624C219.455 157.989 219.722 158.981 220.255 159.6C220.81 160.219 221.546 160.528 222.463 160.528C223.658 160.528 224.511 160.08 225.023 159.184C225.556 158.288 225.866 157.125 225.951 155.696L226.143 151.696C225.866 151.611 225.514 151.536 225.087 151.472C224.66 151.408 224.223 151.376 223.775 151.376C222.73 151.376 221.887 151.632 221.247 152.144C220.607 152.656 220.148 153.317 219.871 154.128C219.594 154.917 219.455 155.749 219.455 156.624ZM251.239 166H242.983V164.336L245.671 163.728V145.456L242.983 144.816V143.152H251.239V144.816L248.551 145.456V163.728L251.239 164.336V166ZM266.691 166.352C266.691 165.968 266.702 165.52 266.723 165.008C266.744 164.496 266.787 164.059 266.851 163.696H266.659C266.168 164.421 265.486 165.04 264.611 165.552C263.758 166.064 262.648 166.32 261.283 166.32C259.214 166.32 257.528 165.584 256.227 164.112C254.947 162.619 254.307 160.4 254.307 157.456C254.307 155.493 254.606 153.851 255.203 152.528C255.8 151.205 256.632 150.213 257.699 149.552C258.766 148.869 259.992 148.528 261.379 148.528C262.723 148.528 263.822 148.784 264.675 149.296C265.528 149.808 266.211 150.437 266.723 151.184H266.851L267.267 148.848H269.507V173.68H266.691V166.352ZM261.827 163.984C263 163.984 263.939 163.771 264.643 163.344C265.368 162.917 265.891 162.267 266.211 161.392C266.531 160.496 266.702 159.387 266.723 158.064V157.488C266.723 155.312 266.36 153.669 265.635 152.56C264.91 151.429 263.619 150.864 261.763 150.864C260.227 150.864 259.086 151.472 258.339 152.688C257.592 153.883 257.219 155.493 257.219 157.52C257.219 159.547 257.592 161.136 258.339 162.288C259.107 163.419 260.27 163.984 261.827 163.984ZM277.77 147.6C277.77 148.325 277.749 149.008 277.706 149.648C277.685 150.267 277.653 150.757 277.61 151.12H277.77C278.261 150.395 278.933 149.787 279.786 149.296C280.64 148.805 281.738 148.56 283.082 148.56C285.216 148.56 286.922 149.307 288.202 150.8C289.504 152.272 290.154 154.48 290.154 157.424C290.154 159.387 289.856 161.029 289.258 162.352C288.682 163.675 287.861 164.667 286.794 165.328C285.728 165.989 284.49 166.32 283.082 166.32C281.738 166.32 280.64 166.075 279.786 165.584C278.933 165.093 278.261 164.507 277.77 163.824H277.546L276.97 166H274.954V141.68H277.77V147.6ZM282.602 150.896C281.386 150.896 280.426 151.131 279.722 151.6C279.018 152.048 278.517 152.752 278.218 153.712C277.92 154.651 277.77 155.856 277.77 157.328V157.456C277.77 159.568 278.112 161.189 278.794 162.32C279.498 163.429 280.789 163.984 282.666 163.984C284.202 163.984 285.344 163.419 286.09 162.288C286.858 161.157 287.242 159.525 287.242 157.392C287.242 155.237 286.858 153.616 286.09 152.528C285.344 151.44 284.181 150.896 282.602 150.896ZM301.138 148.56C303.229 148.56 304.775 149.019 305.778 149.936C306.781 150.853 307.282 152.315 307.282 154.32V166H305.234L304.69 163.568H304.562C304.071 164.187 303.559 164.709 303.026 165.136C302.514 165.541 301.917 165.84 301.234 166.032C300.573 166.224 299.762 166.32 298.802 166.32C297.778 166.32 296.85 166.139 296.018 165.776C295.207 165.413 294.567 164.859 294.098 164.112C293.629 163.344 293.394 162.384 293.394 161.232C293.394 159.525 294.066 158.213 295.41 157.296C296.754 156.357 298.823 155.845 301.618 155.76L304.53 155.664V154.64C304.53 153.211 304.221 152.219 303.602 151.664C302.983 151.109 302.109 150.832 300.978 150.832C300.082 150.832 299.229 150.971 298.418 151.248C297.607 151.504 296.85 151.803 296.146 152.144L295.282 150.032C296.029 149.627 296.914 149.285 297.938 149.008C298.962 148.709 300.029 148.56 301.138 148.56ZM301.97 157.712C299.837 157.797 298.354 158.139 297.522 158.736C296.711 159.333 296.306 160.176 296.306 161.264C296.306 162.224 296.594 162.928 297.17 163.376C297.767 163.824 298.525 164.048 299.442 164.048C300.893 164.048 302.098 163.653 303.058 162.864C304.018 162.053 304.498 160.816 304.498 159.152V157.616L301.97 157.712ZM315.395 166H312.579V141.68H315.395V166ZM324.093 166H321.213V143.152H333.981V145.68H324.093V153.776H333.373V156.304H324.093V166ZM343.919 148.56C346.01 148.56 347.556 149.019 348.559 149.936C349.562 150.853 350.063 152.315 350.063 154.32V166H348.015L347.471 163.568H347.343C346.852 164.187 346.34 164.709 345.807 165.136C345.295 165.541 344.698 165.84 344.015 166.032C343.354 166.224 342.543 166.32 341.583 166.32C340.559 166.32 339.631 166.139 338.799 165.776C337.988 165.413 337.348 164.859 336.879 164.112C336.41 163.344 336.175 162.384 336.175 161.232C336.175 159.525 336.847 158.213 338.191 157.296C339.535 156.357 341.604 155.845 344.399 155.76L347.311 155.664V154.64C347.311 153.211 347.002 152.219 346.383 151.664C345.764 151.109 344.89 150.832 343.759 150.832C342.863 150.832 342.01 150.971 341.199 151.248C340.388 151.504 339.631 151.803 338.927 152.144L338.063 150.032C338.81 149.627 339.695 149.285 340.719 149.008C341.743 148.709 342.81 148.56 343.919 148.56ZM344.751 157.712C342.618 157.797 341.135 158.139 340.303 158.736C339.492 159.333 339.087 160.176 339.087 161.264C339.087 162.224 339.375 162.928 339.951 163.376C340.548 163.824 341.306 164.048 342.223 164.048C343.674 164.048 344.879 163.653 345.839 162.864C346.799 162.053 347.279 160.816 347.279 159.152V157.616L344.751 157.712ZM363.361 148.528C363.681 148.528 364.022 148.549 364.385 148.592C364.769 148.613 365.099 148.656 365.377 148.72L365.025 151.312C364.747 151.248 364.438 151.195 364.097 151.152C363.777 151.109 363.467 151.088 363.169 151.088C362.507 151.088 361.878 151.227 361.281 151.504C360.683 151.781 360.15 152.176 359.681 152.688C359.211 153.179 358.838 153.776 358.561 154.48C358.305 155.184 358.177 155.973 358.177 156.848V166H355.361V148.848H357.665L357.985 151.984H358.113C358.475 151.344 358.913 150.768 359.425 150.256C359.937 149.723 360.523 149.307 361.185 149.008C361.846 148.688 362.571 148.528 363.361 148.528ZM379.747 161.264C379.747 162.373 379.47 163.301 378.915 164.048C378.361 164.795 377.571 165.36 376.547 165.744C375.523 166.128 374.307 166.32 372.899 166.32C371.705 166.32 370.67 166.224 369.795 166.032C368.942 165.84 368.185 165.573 367.523 165.232V162.672C368.206 163.013 369.027 163.333 369.987 163.632C370.969 163.909 371.961 164.048 372.963 164.048C374.393 164.048 375.427 163.824 376.067 163.376C376.707 162.907 377.027 162.288 377.027 161.52C377.027 161.093 376.91 160.709 376.675 160.368C376.441 160.027 376.014 159.685 375.395 159.344C374.798 159.003 373.934 158.619 372.803 158.192C371.694 157.765 370.745 157.339 369.955 156.912C369.166 156.485 368.558 155.973 368.131 155.376C367.705 154.779 367.491 154.011 367.491 153.072C367.491 151.621 368.078 150.501 369.251 149.712C370.446 148.923 372.003 148.528 373.923 148.528C374.969 148.528 375.939 148.635 376.835 148.848C377.753 149.04 378.606 149.317 379.395 149.68L378.435 151.92C377.966 151.707 377.465 151.525 376.931 151.376C376.419 151.205 375.897 151.077 375.363 150.992C374.83 150.885 374.286 150.832 373.731 150.832C372.579 150.832 371.694 151.024 371.075 151.408C370.478 151.771 370.179 152.272 370.179 152.912C370.179 153.381 370.318 153.787 370.595 154.128C370.873 154.448 371.331 154.768 371.971 155.088C372.633 155.387 373.507 155.749 374.595 156.176C375.683 156.581 376.611 156.997 377.379 157.424C378.147 157.851 378.734 158.373 379.139 158.992C379.545 159.589 379.747 160.347 379.747 161.264ZM386.708 148.848V166H383.892V148.848H386.708ZM385.332 142.416C385.759 142.416 386.132 142.565 386.452 142.864C386.793 143.141 386.964 143.589 386.964 144.208C386.964 144.805 386.793 145.253 386.452 145.552C386.132 145.851 385.759 146 385.332 146C384.863 146 384.468 145.851 384.148 145.552C383.828 145.253 383.668 144.805 383.668 144.208C383.668 143.589 383.828 143.141 384.148 142.864C384.468 142.565 384.863 142.416 385.332 142.416ZM412.462 154.544C412.462 156.315 412.238 157.925 411.79 159.376C411.342 160.805 410.67 162.043 409.774 163.088C408.899 164.133 407.801 164.933 406.478 165.488C405.177 166.043 403.662 166.32 401.934 166.32C400.142 166.32 398.585 166.043 397.262 165.488C395.939 164.912 394.841 164.112 393.966 163.088C393.091 162.043 392.441 160.795 392.014 159.344C391.587 157.893 391.374 156.283 391.374 154.512C391.374 152.165 391.758 150.117 392.526 148.368C393.294 146.619 394.457 145.253 396.014 144.272C397.593 143.291 399.577 142.8 401.966 142.8C404.249 142.8 406.169 143.291 407.726 144.272C409.283 145.232 410.457 146.597 411.246 148.368C412.057 150.117 412.462 152.176 412.462 154.544ZM394.414 154.544C394.414 156.464 394.681 158.117 395.214 159.504C395.747 160.891 396.569 161.957 397.678 162.704C398.809 163.451 400.227 163.824 401.934 163.824C403.662 163.824 405.07 163.451 406.158 162.704C407.267 161.957 408.089 160.891 408.622 159.504C409.155 158.117 409.422 156.464 409.422 154.544C409.422 151.664 408.825 149.413 407.63 147.792C406.435 146.149 404.547 145.328 401.966 145.328C400.238 145.328 398.809 145.701 397.678 146.448C396.569 147.173 395.747 148.229 395.214 149.616C394.681 150.981 394.414 152.624 394.414 154.544ZM425.046 151.024H420.726V166H417.91V151.024H414.902V149.712L417.91 148.752V147.76C417.91 146.288 418.123 145.093 418.55 144.176C418.998 143.259 419.638 142.587 420.47 142.16C421.302 141.733 422.305 141.52 423.478 141.52C424.161 141.52 424.779 141.584 425.334 141.712C425.91 141.819 426.401 141.947 426.806 142.096L426.07 144.304C425.729 144.197 425.334 144.091 424.886 143.984C424.438 143.877 423.979 143.824 423.51 143.824C422.571 143.824 421.867 144.144 421.398 144.784C420.95 145.403 420.726 146.384 420.726 147.728V148.848H425.046V151.024ZM436.054 151.024H431.734V166H428.918V151.024H425.91V149.712L428.918 148.752V147.76C428.918 146.288 429.131 145.093 429.558 144.176C430.006 143.259 430.646 142.587 431.478 142.16C432.31 141.733 433.313 141.52 434.486 141.52C435.169 141.52 435.787 141.584 436.342 141.712C436.918 141.819 437.409 141.947 437.814 142.096L437.078 144.304C436.737 144.197 436.342 144.091 435.894 143.984C435.446 143.877 434.987 143.824 434.518 143.824C433.579 143.824 432.875 144.144 432.406 144.784C431.958 145.403 431.734 146.384 431.734 147.728V148.848H436.054V151.024ZM441.974 148.848V166H439.158V148.848H441.974ZM440.598 142.416C441.025 142.416 441.398 142.565 441.718 142.864C442.059 143.141 442.23 143.589 442.23 144.208C442.23 144.805 442.059 145.253 441.718 145.552C441.398 145.851 441.025 146 440.598 146C440.129 146 439.734 145.851 439.414 145.552C439.094 145.253 438.934 144.805 438.934 144.208C438.934 143.589 439.094 143.141 439.414 142.864C439.734 142.565 440.129 142.416 440.598 142.416ZM454.303 166.32C452.788 166.32 451.434 166.011 450.239 165.392C449.066 164.773 448.138 163.813 447.455 162.512C446.794 161.211 446.463 159.547 446.463 157.52C446.463 155.408 446.815 153.691 447.519 152.368C448.223 151.045 449.172 150.075 450.367 149.456C451.583 148.837 452.959 148.528 454.495 148.528C455.37 148.528 456.212 148.624 457.023 148.816C457.834 148.987 458.495 149.2 459.007 149.456L458.143 151.792C457.631 151.6 457.034 151.419 456.351 151.248C455.668 151.077 455.028 150.992 454.431 150.992C453.279 150.992 452.33 151.237 451.583 151.728C450.836 152.219 450.282 152.944 449.919 153.904C449.556 154.864 449.375 156.059 449.375 157.488C449.375 158.853 449.556 160.016 449.919 160.976C450.282 161.936 450.826 162.661 451.551 163.152C452.276 163.643 453.183 163.888 454.271 163.888C455.21 163.888 456.031 163.792 456.735 163.6C457.46 163.408 458.122 163.173 458.719 162.896V165.392C458.143 165.691 457.503 165.915 456.799 166.064C456.116 166.235 455.284 166.32 454.303 166.32ZM465.614 148.848V166H462.798V148.848H465.614ZM464.238 142.416C464.665 142.416 465.038 142.565 465.358 142.864C465.699 143.141 465.87 143.589 465.87 144.208C465.87 144.805 465.699 145.253 465.358 145.552C465.038 145.851 464.665 146 464.238 146C463.769 146 463.374 145.851 463.054 145.552C462.734 145.253 462.574 144.805 462.574 144.208C462.574 143.589 462.734 143.141 463.054 142.864C463.374 142.565 463.769 142.416 464.238 142.416ZM477.544 148.56C479.635 148.56 481.181 149.019 482.184 149.936C483.187 150.853 483.688 152.315 483.688 154.32V166H481.64L481.096 163.568H480.968C480.477 164.187 479.965 164.709 479.432 165.136C478.92 165.541 478.323 165.84 477.64 166.032C476.979 166.224 476.168 166.32 475.208 166.32C474.184 166.32 473.256 166.139 472.424 165.776C471.613 165.413 470.973 164.859 470.504 164.112C470.035 163.344 469.8 162.384 469.8 161.232C469.8 159.525 470.472 158.213 471.816 157.296C473.16 156.357 475.229 155.845 478.024 155.76L480.936 155.664V154.64C480.936 153.211 480.627 152.219 480.008 151.664C479.389 151.109 478.515 150.832 477.384 150.832C476.488 150.832 475.635 150.971 474.824 151.248C474.013 151.504 473.256 151.803 472.552 152.144L471.688 150.032C472.435 149.627 473.32 149.285 474.344 149.008C475.368 148.709 476.435 148.56 477.544 148.56ZM478.376 157.712C476.243 157.797 474.76 158.139 473.928 158.736C473.117 159.333 472.712 160.176 472.712 161.264C472.712 162.224 473 162.928 473.576 163.376C474.173 163.824 474.931 164.048 475.848 164.048C477.299 164.048 478.504 163.653 479.464 162.864C480.424 162.053 480.904 160.816 480.904 159.152V157.616L478.376 157.712ZM491.802 166H488.986V141.68H491.802V166Z" fill="black"/>
<line y1="104.5" x2="484.051" y2="104.5" stroke="black"/>
<defs>
<clipPath id="clip0_95_17">
<rect width="48" height="48" fill="white" transform="translate(10 137)"/>
</clipPath>
<clipPath id="clip1_95_17">
<rect width="48" height="48" fill="white" transform="translate(114 133)"/>
</clipPath>
<clipPath id="clip2_95_17">
<rect width="48" height="48" fill="white" transform="translate(114 23)"/>
</clipPath>
</defs>
</svg>
