<svg width="1353" height="140" viewBox="0 0 1353 140" fill="none" xmlns="http://www.w3.org/2000/svg">
<line x1="7.5" y1="122.616" x2="7.5" y2="17.384" stroke="black" stroke-width="5" stroke-linecap="square"/>
<line x1="17.5" y1="88.0812" x2="17.5" y2="51.9188" stroke="black" stroke-width="5" stroke-linecap="square"/>
<line x1="27.5" y1="88.7256" x2="27.5" y2="51.2744" stroke="black" stroke-width="5" stroke-linecap="square"/>
<line x1="37.5" y1="111.932" x2="37.5" y2="28.0675" stroke="black" stroke-width="5" stroke-linecap="square"/>
<line x1="47.5" y1="117.297" x2="47.5" y2="22.7025" stroke="black" stroke-width="5" stroke-linecap="square"/>
<line x1="57.5" y1="82.1582" x2="57.5" y2="57.8418" stroke="black" stroke-width="5" stroke-linecap="square"/>
<line x1="67.5" y1="121.273" x2="67.5" y2="18.7273" stroke="black" stroke-width="5" stroke-linecap="square"/>
<line x1="77.5" y1="96.876" x2="77.5" y2="43.124" stroke="black" stroke-width="5" stroke-linecap="square"/>
<line x1="87.5" y1="123.178" x2="87.5" y2="16.8216" stroke="black" stroke-width="5" stroke-linecap="square"/>
<line x1="97.5" y1="101.568" x2="97.5" y2="38.4323" stroke="black" stroke-width="5" stroke-linecap="square"/>
<line x1="107.5" y1="105.004" x2="107.5" y2="34.9964" stroke="black" stroke-width="5" stroke-linecap="square"/>
<line x1="117.5" y1="93.4041" x2="117.5" y2="46.5958" stroke="black" stroke-width="5" stroke-linecap="square"/>
<line x1="127.5" y1="91.1237" x2="127.5" y2="48.8763" stroke="black" stroke-width="5" stroke-linecap="square"/>
<line x1="137.5" y1="100.298" x2="137.5" y2="39.7016" stroke="black" stroke-width="5" stroke-linecap="square"/>
<line x1="147.5" y1="86.0596" x2="147.5" y2="53.9404" stroke="black" stroke-width="5" stroke-linecap="square"/>
<line x1="157.5" y1="115.37" x2="157.5" y2="24.6302" stroke="black" stroke-width="5" stroke-linecap="square"/>
<line x1="167.5" y1="89.8962" x2="167.5" y2="50.1038" stroke="black" stroke-width="5" stroke-linecap="square"/>
<line x1="177.5" y1="82.6707" x2="177.5" y2="57.3293" stroke="black" stroke-width="5" stroke-linecap="square"/>
<line x1="187.5" y1="108.862" x2="187.5" y2="31.1382" stroke="black" stroke-width="5" stroke-linecap="square"/>
<line x1="197.5" y1="119.902" x2="197.5" y2="20.0981" stroke="black" stroke-width="5" stroke-linecap="square"/>
<line x1="207.5" y1="82.183" x2="207.5" y2="57.8169" stroke="black" stroke-width="5" stroke-linecap="square"/>
<line x1="217.5" y1="85.9794" x2="217.5" y2="54.0206" stroke="black" stroke-width="5" stroke-linecap="square"/>
<line x1="227.5" y1="104.81" x2="227.5" y2="35.1903" stroke="black" stroke-width="5" stroke-linecap="square"/>
<line x1="237.5" y1="110.326" x2="237.5" y2="29.6743" stroke="black" stroke-width="5" stroke-linecap="square"/>
<line x1="247.5" y1="114.064" x2="247.5" y2="25.9361" stroke="black" stroke-width="5" stroke-linecap="square"/>
<line x1="257.5" y1="89.9373" x2="257.5" y2="50.0627" stroke="black" stroke-width="5" stroke-linecap="square"/>
<line x1="267.5" y1="116.316" x2="267.5" y2="23.6839" stroke="black" stroke-width="5" stroke-linecap="square"/>
<line x1="277.5" y1="120.736" x2="277.5" y2="19.2644" stroke="black" stroke-width="5" stroke-linecap="square"/>
<line x1="287.5" y1="82.8445" x2="287.5" y2="57.1555" stroke="black" stroke-width="5" stroke-linecap="square"/>
<line x1="297.5" y1="90.3822" x2="297.5" y2="49.6178" stroke="black" stroke-width="5" stroke-linecap="square"/>
<line x1="307.5" y1="121.164" x2="307.5" y2="18.8359" stroke="black" stroke-width="5" stroke-linecap="square"/>
<line x1="317.5" y1="100.343" x2="317.5" y2="39.6567" stroke="black" stroke-width="5" stroke-linecap="square"/>
<line x1="327.5" y1="110.206" x2="327.5" y2="29.7939" stroke="black" stroke-width="5" stroke-linecap="square"/>
<line x1="337.5" y1="91.1582" x2="337.5" y2="48.8418" stroke="black" stroke-width="5" stroke-linecap="square"/>
<line x1="347.5" y1="86.4079" x2="347.5" y2="53.5921" stroke="black" stroke-width="5" stroke-linecap="square"/>
<line x1="357.5" y1="93.8833" x2="357.5" y2="46.1167" stroke="black" stroke-width="5" stroke-linecap="square"/>
<line x1="367.5" y1="93.8139" x2="367.5" y2="46.1861" stroke="black" stroke-width="5" stroke-linecap="square"/>
<line x1="377.5" y1="108.006" x2="377.5" y2="31.9936" stroke="black" stroke-width="5" stroke-linecap="square"/>
<line x1="387.5" y1="83.4779" x2="387.5" y2="56.5221" stroke="black" stroke-width="5" stroke-linecap="square"/>
<line x1="397.5" y1="122.552" x2="397.5" y2="17.4482" stroke="black" stroke-width="5" stroke-linecap="square"/>
<line x1="407.5" y1="118.929" x2="407.5" y2="21.0709" stroke="black" stroke-width="5" stroke-linecap="square"/>
<line x1="417.5" y1="119.321" x2="417.5" y2="20.6786" stroke="black" stroke-width="5" stroke-linecap="square"/>
<line x1="427.5" y1="82.7615" x2="427.5" y2="57.2385" stroke="black" stroke-width="5" stroke-linecap="square"/>
<line x1="437.5" y1="113.743" x2="437.5" y2="26.2569" stroke="black" stroke-width="5" stroke-linecap="square"/>
<line x1="447.5" y1="100.663" x2="447.5" y2="39.3374" stroke="black" stroke-width="5" stroke-linecap="square"/>
<line x1="457.5" y1="94.9625" x2="457.5" y2="45.0375" stroke="black" stroke-width="5" stroke-linecap="square"/>
<line x1="467.5" y1="105.13" x2="467.5" y2="34.8697" stroke="black" stroke-width="5" stroke-linecap="square"/>
<line x1="477.5" y1="114.334" x2="477.5" y2="25.6656" stroke="black" stroke-width="5" stroke-linecap="square"/>
<line x1="487.5" y1="113.23" x2="487.5" y2="26.7697" stroke="black" stroke-width="5" stroke-linecap="square"/>
<line x1="497.5" y1="117.512" x2="497.5" y2="22.4877" stroke="black" stroke-width="5" stroke-linecap="square"/>
<line x1="507.5" y1="82.3044" x2="507.5" y2="57.6956" stroke="black" stroke-width="5" stroke-linecap="square"/>
<line x1="517.5" y1="117.844" x2="517.5" y2="22.1563" stroke="black" stroke-width="5" stroke-linecap="square"/>
<line x1="527.5" y1="114.303" x2="527.5" y2="25.697" stroke="black" stroke-width="5" stroke-linecap="square"/>
<line x1="537.5" y1="104.575" x2="537.5" y2="35.4251" stroke="black" stroke-width="5" stroke-linecap="square"/>
<line x1="547.5" y1="100.16" x2="547.5" y2="39.8399" stroke="black" stroke-width="5" stroke-linecap="square"/>
<line x1="557.5" y1="103.192" x2="557.5" y2="36.8082" stroke="black" stroke-width="5" stroke-linecap="square"/>
<line x1="567.5" y1="122.147" x2="567.5" y2="17.8533" stroke="black" stroke-width="5" stroke-linecap="square"/>
<line x1="577.5" y1="122.19" x2="577.5" y2="17.8101" stroke="black" stroke-width="5" stroke-linecap="square"/>
<line x1="587.5" y1="106.956" x2="587.5" y2="33.0437" stroke="black" stroke-width="5" stroke-linecap="square"/>
<line x1="597.5" y1="105.869" x2="597.5" y2="34.1306" stroke="black" stroke-width="5" stroke-linecap="square"/>
<line x1="607.5" y1="91.2567" x2="607.5" y2="48.7433" stroke="black" stroke-width="5" stroke-linecap="square"/>
<line x1="617.5" y1="95.9255" x2="617.5" y2="44.0745" stroke="black" stroke-width="5" stroke-linecap="square"/>
<line x1="627.5" y1="114.878" x2="627.5" y2="25.1223" stroke="black" stroke-width="5" stroke-linecap="square"/>
<line x1="637.5" y1="112.853" x2="637.5" y2="27.1469" stroke="black" stroke-width="5" stroke-linecap="square"/>
<line x1="647.5" y1="81.6708" x2="647.5" y2="58.3292" stroke="black" stroke-width="5" stroke-linecap="square"/>
<line x1="657.5" y1="109.378" x2="657.5" y2="30.6225" stroke="black" stroke-width="5" stroke-linecap="square"/>
<line x1="667.5" y1="87.8156" x2="667.5" y2="52.1844" stroke="black" stroke-width="5" stroke-linecap="square"/>
<line x1="677.5" y1="89.8772" x2="677.5" y2="50.1228" stroke="black" stroke-width="5" stroke-linecap="square"/>
<line x1="687.5" y1="98.029" x2="687.5" y2="41.971" stroke="black" stroke-width="5" stroke-linecap="square"/>
<line x1="697.5" y1="113.388" x2="697.5" y2="26.6116" stroke="black" stroke-width="5" stroke-linecap="square"/>
<line x1="707.5" y1="82.035" x2="707.5" y2="57.9649" stroke="black" stroke-width="5" stroke-linecap="square"/>
<line x1="717.5" y1="110.699" x2="717.5" y2="29.3006" stroke="black" stroke-width="5" stroke-linecap="square"/>
<line x1="727.5" y1="101.212" x2="727.5" y2="38.7884" stroke="black" stroke-width="5" stroke-linecap="square"/>
<line x1="737.5" y1="84.4402" x2="737.5" y2="55.5598" stroke="black" stroke-width="5" stroke-linecap="square"/>
<line x1="747.5" y1="81.6804" x2="747.5" y2="58.3196" stroke="black" stroke-width="5" stroke-linecap="square"/>
<line x1="757.5" y1="119.741" x2="757.5" y2="20.2594" stroke="black" stroke-width="5" stroke-linecap="square"/>
<line x1="767.5" y1="112.08" x2="767.5" y2="27.9204" stroke="black" stroke-width="5" stroke-linecap="square"/>
<line x1="777.5" y1="102.677" x2="777.5" y2="37.3227" stroke="black" stroke-width="5" stroke-linecap="square"/>
<line x1="787.5" y1="122.117" x2="787.5" y2="17.883" stroke="black" stroke-width="5" stroke-linecap="square"/>
<line x1="797.5" y1="102.602" x2="797.5" y2="37.3978" stroke="black" stroke-width="5" stroke-linecap="square"/>
<line x1="807.5" y1="118.736" x2="807.5" y2="21.2636" stroke="black" stroke-width="5" stroke-linecap="square"/>
<line x1="817.5" y1="88.9717" x2="817.5" y2="51.0283" stroke="black" stroke-width="5" stroke-linecap="square"/>
<line x1="827.5" y1="93.2324" x2="827.5" y2="46.7676" stroke="black" stroke-width="5" stroke-linecap="square"/>
<line x1="837.5" y1="87.8566" x2="837.5" y2="52.1434" stroke="black" stroke-width="5" stroke-linecap="square"/>
<line x1="847.5" y1="116.464" x2="847.5" y2="23.5357" stroke="black" stroke-width="5" stroke-linecap="square"/>
<line x1="857.5" y1="118.615" x2="857.5" y2="21.3852" stroke="black" stroke-width="5" stroke-linecap="square"/>
<line x1="867.5" y1="89.3043" x2="867.5" y2="50.6957" stroke="black" stroke-width="5" stroke-linecap="square"/>
<line x1="877.5" y1="116.422" x2="877.5" y2="23.5777" stroke="black" stroke-width="5" stroke-linecap="square"/>
<line x1="887.5" y1="100.254" x2="887.5" y2="39.746" stroke="black" stroke-width="5" stroke-linecap="square"/>
<line x1="897.5" y1="83.9235" x2="897.5" y2="56.0765" stroke="black" stroke-width="5" stroke-linecap="square"/>
<line x1="907.5" y1="116.476" x2="907.5" y2="23.5242" stroke="black" stroke-width="5" stroke-linecap="square"/>
<line x1="917.5" y1="83.7737" x2="917.5" y2="56.2263" stroke="black" stroke-width="5" stroke-linecap="square"/>
<line x1="927.5" y1="106.91" x2="927.5" y2="33.09" stroke="black" stroke-width="5" stroke-linecap="square"/>
<line x1="937.5" y1="120.477" x2="937.5" y2="19.5229" stroke="black" stroke-width="5" stroke-linecap="square"/>
<line x1="947.5" y1="120.691" x2="947.5" y2="19.3093" stroke="black" stroke-width="5" stroke-linecap="square"/>
<line x1="957.5" y1="94.0399" x2="957.5" y2="45.9601" stroke="black" stroke-width="5" stroke-linecap="square"/>
<line x1="967.5" y1="113.809" x2="967.5" y2="26.1913" stroke="black" stroke-width="5" stroke-linecap="square"/>
<line x1="977.5" y1="101.439" x2="977.5" y2="38.5607" stroke="black" stroke-width="5" stroke-linecap="square"/>
<line x1="987.5" y1="106.667" x2="987.5" y2="33.3326" stroke="black" stroke-width="5" stroke-linecap="square"/>
<line x1="997.5" y1="117.664" x2="997.5" y2="22.336" stroke="black" stroke-width="5" stroke-linecap="square"/>
<line x1="1007.5" y1="90.0784" x2="1007.5" y2="49.9216" stroke="black" stroke-width="5" stroke-linecap="square"/>
<line x1="1017.5" y1="118.54" x2="1017.5" y2="21.46" stroke="black" stroke-width="5" stroke-linecap="square"/>
<line x1="1027.5" y1="83.6183" x2="1027.5" y2="56.3818" stroke="black" stroke-width="5" stroke-linecap="square"/>
<line x1="1037.5" y1="117.552" x2="1037.5" y2="22.4477" stroke="black" stroke-width="5" stroke-linecap="square"/>
<line x1="1047.5" y1="105.538" x2="1047.5" y2="34.4623" stroke="black" stroke-width="5" stroke-linecap="square"/>
<line x1="1057.5" y1="83.0206" x2="1057.5" y2="56.9794" stroke="black" stroke-width="5" stroke-linecap="square"/>
<line x1="1067.5" y1="103.177" x2="1067.5" y2="36.8234" stroke="black" stroke-width="5" stroke-linecap="square"/>
<line x1="1077.5" y1="105.39" x2="1077.5" y2="34.6097" stroke="black" stroke-width="5" stroke-linecap="square"/>
<line x1="1087.5" y1="113.597" x2="1087.5" y2="26.4028" stroke="black" stroke-width="5" stroke-linecap="square"/>
<line x1="1097.5" y1="91.5633" x2="1097.5" y2="48.4367" stroke="black" stroke-width="5" stroke-linecap="square"/>
<line x1="1107.5" y1="114.559" x2="1107.5" y2="25.4414" stroke="black" stroke-width="5" stroke-linecap="square"/>
<line x1="1117.5" y1="122.294" x2="1117.5" y2="17.706" stroke="black" stroke-width="5" stroke-linecap="square"/>
<line x1="1127.5" y1="116.938" x2="1127.5" y2="23.0619" stroke="black" stroke-width="5" stroke-linecap="square"/>
<line x1="1137.5" y1="87.9243" x2="1137.5" y2="52.0758" stroke="black" stroke-width="5" stroke-linecap="square"/>
<line x1="1147.5" y1="110.862" x2="1147.5" y2="29.1384" stroke="black" stroke-width="5" stroke-linecap="square"/>
<line x1="1157.5" y1="105.309" x2="1157.5" y2="34.691" stroke="black" stroke-width="5" stroke-linecap="square"/>
<line x1="1167.5" y1="105.721" x2="1167.5" y2="34.2789" stroke="black" stroke-width="5" stroke-linecap="square"/>
<line x1="1177.5" y1="96.2056" x2="1177.5" y2="43.7944" stroke="black" stroke-width="5" stroke-linecap="square"/>
<line x1="1187.5" y1="107.508" x2="1187.5" y2="32.4923" stroke="black" stroke-width="5" stroke-linecap="square"/>
<line x1="1197.5" y1="100.24" x2="1197.5" y2="39.7596" stroke="black" stroke-width="5" stroke-linecap="square"/>
<line x1="1207.5" y1="102.211" x2="1207.5" y2="37.7894" stroke="black" stroke-width="5" stroke-linecap="square"/>
<line x1="1217.5" y1="117.54" x2="1217.5" y2="22.4604" stroke="black" stroke-width="5" stroke-linecap="square"/>
<line x1="1227.5" y1="116.813" x2="1227.5" y2="23.1873" stroke="black" stroke-width="5" stroke-linecap="square"/>
<line x1="1237.5" y1="103.748" x2="1237.5" y2="36.2521" stroke="black" stroke-width="5" stroke-linecap="square"/>
<line x1="1247.5" y1="118.863" x2="1247.5" y2="21.1369" stroke="black" stroke-width="5" stroke-linecap="square"/>
<line x1="1257.5" y1="82.8249" x2="1257.5" y2="57.1751" stroke="black" stroke-width="5" stroke-linecap="square"/>
<line x1="1267.5" y1="97.3389" x2="1267.5" y2="42.6611" stroke="black" stroke-width="5" stroke-linecap="square"/>
<line x1="1277.5" y1="87.9411" x2="1277.5" y2="52.0589" stroke="black" stroke-width="5" stroke-linecap="square"/>
<line x1="1287.5" y1="91.5184" x2="1287.5" y2="48.4816" stroke="black" stroke-width="5" stroke-linecap="square"/>
<line x1="1297.5" y1="88.671" x2="1297.5" y2="51.329" stroke="black" stroke-width="5" stroke-linecap="square"/>
<line x1="1307.5" y1="99.7523" x2="1307.5" y2="40.2477" stroke="black" stroke-width="5" stroke-linecap="square"/>
<line x1="1317.5" y1="88.1514" x2="1317.5" y2="51.8486" stroke="black" stroke-width="5" stroke-linecap="square"/>
<line x1="1327.5" y1="83.0531" x2="1327.5" y2="56.9469" stroke="black" stroke-width="5" stroke-linecap="square"/>
<line x1="1337.5" y1="111.951" x2="1337.5" y2="28.0485" stroke="black" stroke-width="5" stroke-linecap="square"/>
<line x1="1347.5" y1="90.5493" x2="1347.5" y2="49.4508" stroke="black" stroke-width="5" stroke-linecap="square"/>
</svg>
